HIERARCHY
ROOT Hips
{
    OFFSET 13.948945999145508 93.83965682983398 -18.233760833740234
    CHANNELS 6 Xposition Yposition Zposition Zrotation Xrotation Yrotation
    JOINT RightUpLeg
    {
        OFFSET -13.948945999145508 0.0 0.0
        CHANNELS 3 Zrotation Xrotation Yrotation
        JOINT RightLeg
        {
            OFFSET 0.0 -48.255252838134766 0.0
            CHANNELS 3 Zrotation Xrotation Yrotation
            JOINT RightFoot
            {
                OFFSET 0.0 -45.58440399169922 0.0
                CHANNELS 3 Zrotation Xrotation Yrotation
                End Site
                {
                    OFFSET 0.0 0.0 18.233760833740234
                }
            }
        }
    }
    JOINT LeftUpLeg
    {
        OFFSET 13.948945999145508 0.0 0.0
        CHANNELS 3 Zrotation Xrotation Yrotation
        JOINT LeftLeg
        {
            OFFSET 0.0 -48.255252838134766 0.0
            CHANNELS 3 Zrotation Xrotation Yrotation
            JOINT LeftFoot
            {
                OFFSET 0.0 -45.58440399169922 0.0
                CHANNELS 3 Zrotation Xrotation Yrotation
                End Site
                {
                    OFFSET 0.0 0.0 18.233760833740234
                }
            }
        }
    }
    JOINT Spine
    {
        OFFSET 0.0 25.9769287109375 0.0
        CHANNELS 3 Zrotation Xrotation Yrotation
        JOINT Spine3
        {
            OFFSET 0.0 24.63811492919922 0.0
            CHANNELS 3 Zrotation Xrotation Yrotation
            JOINT Neck
            {
                OFFSET 0.0 10.633310317993164 0.0
                CHANNELS 3 Zrotation Xrotation Yrotation
                End Site
                {
                    OFFSET 0.0 4.253324031829834 0.0
                }
            }
            JOINT LeftArm
            {
                OFFSET 14.366086959838867 0.0 0.0
                CHANNELS 3 Zrotation Xrotation Yrotation
                JOINT LeftForeArm
                {
                    OFFSET 29.535167694091797 0.0 0.0
                    CHANNELS 3 Zrotation Xrotation Yrotation
                    JOINT LeftHand
                    {
                        OFFSET 25.120838165283203 0.0 0.0
                        CHANNELS 3 Zrotation Xrotation Yrotation
                        End Site
                        {
                            OFFSET 10.048336029052734 0.0 0.0
                        }
                    }
                }
            }
            JOINT RightArm
            {
                OFFSET -14.366086959838867 0.0 0.0
                CHANNELS 3 Zrotation Xrotation Yrotation
                JOINT RightForeArm
                {
                    OFFSET -29.535167694091797 0.0 0.0
                    CHANNELS 3 Zrotation Xrotation Yrotation
                    JOINT RightHand
                    {
                        OFFSET -25.120838165283203 0.0 0.0
                        CHANNELS 3 Zrotation Xrotation Yrotation
                        End Site
                        {
                            OFFSET -10.048336029052734 0.0 0.0
                        }
                    }
                }
            }
        }
    }
}
MOTION
Frames: 10
Frame Time: 0.03333333333333333
0.0005510977935045958 95.60906219482422 -0.000726398138795048 -19.48259538175759 0.5148268096439853 -76.84562360027532 0.28426456696152586 14.728981549407514 -1.0489735475726711 1.8639525401675008 16.957370030823263 -1.707043074889737 -7.951386703658792e-16 -7.951386703658792e-16 -4.47265502080807e-15 1.372452799460723 23.641244471338407 -2.095722918673809 0.5755709944444675 23.477755385924652 -2.1403537963165977 -1.5902773407317576e-15 -3.1805546814635164e-15 1.630034274250052e-14 13.734004159068904 29.306840404565005 -8.810129093613307 -5.354511015891171e-07 5.488016583920637e-07 -12.304098991225006 -3.2401816220382154 6.864503642642447 -156.63661240095243 123.44783270899887 -34.37094055966081 -159.36474198593064 -4.980213302825951e-07 -4.3571591403751585e-06 41.889217861664164 0.0 0.0 -1.5902773407317584e-15 -119.74490025519735 -17.530000556709332 178.01800839346407 -1.9078695207244194e-06 4.915376115925202e-06 -33.20302288363329 1.7655625192200634e-31 -3.1805546814635168e-15 6.3611093629270335e-15
0.00047298308345489204 95.609375 -0.0007809448870830238 -19.288463300147736 0.8321277412523629 -77.20136237527316 0.5972521914679421 14.774656550296827 -1.0961934722854563 1.4748693899581307 16.902449084397592 -1.6354134637567934 7.951386703658792e-16 1.5902773407317582e-15 -5.3671860249696836e-15 1.1054635917339424 22.54500593857123 -1.8458399330724058 0.5726221248034732 23.6460228062653 -2.017574448306121 -1.5902773407317584e-15 1.6552148617688095e-32 -1.1927080055488188e-15 14.000086821822732 29.586383686881483 -8.951272093854898 -7.482528329448579e-07 7.992891379548122e-07 -11.50952366025075 -0.8429026350478096 7.189259334092899 -155.11037041878623 123.1014424100935 -34.59387157508812 -160.28381519741515 8.547194192446508e-07 -4.0093756882971646e-06 39.921525882313496 -6.3611093629270335e-15 0.0 0.0 -121.47273051834465 -19.83115420758351 176.4557326846858 1.8120828870749987e-06 -1.6314573515409107e-06 -31.007172870218863 0.0 3.1805546814635168e-15 0.0
0.00045513969962485135 95.60975646972656 -0.0007871800335124135 -19.420705403326618 1.781214416873509 -77.68137190049784 1.3067058588143987 16.128796983776677 -1.4786921361487182 0.7266112670421019 15.882348431205397 -1.5954733701640595 -7.951386703658791e-16 1.5902773407317582e-15 -2.0872390097104326e-15 1.5388659722447702 21.50754658097003 -2.0401642569519423 0.2625498563080976 25.36572923961964 -2.3342889849212636 2.3173008064763334e-31 -3.1805546814635168e-15 8.348956038841732e-15 15.02447715239268 29.692413270394937 -9.694926862978644 3.4983379112284613e-07 1.0490688930543282e-07 -10.813039632260235 -0.20825283330489988 9.288699945373992 -156.0792227566312 120.71398870315247 -33.23271874168752 -163.41919710901308 -4.87629328220435e-06 1.9234262771108355e-06 37.06592290694254 6.361109362927033e-15 3.180554681463516e-15 -4.770832022195274e-15 -122.57819347408535 -22.723686111519132 174.5594424197046 -4.013417883533293e-06 2.4412846623992383e-06 -27.23868224381096 3.1805546814635168e-15 0.0 0.0
0.0004941003862768412 95.60922241210938 -0.000680456985719502 -20.359540878318604 0.9974705726163879 -77.64234328394548 1.4937787314118984 18.903906378723978 -1.7574360221388112 1.0523166796001568 14.118612587179976 -1.507726835125416 5.793252016190833e-32 -7.951386703658791e-16 8.34895603884173e-15 2.561896942506048 20.525348405709853 -2.282818317458362 -0.1045621179892082 29.973543619653004 -2.9951289940079455 1.5902773407317584e-15 -1.2138242319637935e-31 -8.74652537402467e-15 13.230642320631006 30.086468569829908 -8.794299251690708 -1.800570898968227e-07 -5.058047717303867e-07 -9.918030037984275 -1.1008534941335062 8.396368747779334 -163.01375984751186 121.13222957121414 -37.254034793237395 -163.7550746018639 -2.7648450821442917e-06 1.2794046737356643e-06 33.800265174896815 0.0 0.0 -6.361109362927033e-15 -123.05310985046493 -22.43475368682394 173.87569288018494 -7.741923275744855e-07 -1.0810348014355723e-06 -29.262495585074813 -1.5902773407317584e-15 0.0 0.0
0.0005210971576161683 95.60893249511719 -0.0005402998649515212 -21.78585516894738 0.45560630652996004 -77.83802634800989 1.8974454411160309 21.966569411947003 -2.3714406547176536 1.3378267635889072 13.091170714940452 -1.6356519420316917 2.385416011097637e-15 -8.68987802428625e-32 -4.174478019420865e-15 2.0829305463750507 18.942195513362176 -2.1213039708812684 1.0325429744157164 37.37190011734249 -4.384461636315742 1.5902773407317582e-15 -5.517382872562698e-32 -3.975693351829395e-15 12.785317057106196 31.449350318186447 -9.179739054690847 2.5612005241137566e-07 8.371746520103415e-08 -9.381008883920943 -2.712359089739554 7.817347445771527 -165.94114741401395 119.29814246977585 -35.90209889790264 -165.95931192798767 1.072008850590627e-06 6.216388785940364e-07 32.3173839618695 -8.827812596100317e-32 3.1805546814635168e-15 3.1805546814635168e-15 -123.1854252674948 -19.37961746912996 172.67229328271753 1.8687557553512043e-06 -2.5608609073171665e-06 -31.896023750780397 1.5902773407317588e-15 8.827812596100317e-32 6.361109362927035e-15
0.00040103858918882906 95.6087417602539 -0.0005303673096932471 -22.36068410059296 1.3289701958651732 -80.92255279575677 1.871080434731514 23.24773196866024 -2.736409229667994 2.4099372727579373 12.504287676306886 -1.9067815616113293 -7.951386703658792e-16 2.3854160110976376e-15 2.2860236773019026e-15 0.8294965054889691 17.486073516731484 -1.7680807235891283 1.7643702883524233 41.750036703682106 -4.923260524535918 8.827812596100317e-32 -3.1805546814635168e-15 3.1805546814635168e-15 10.55933418561902 32.81082128955464 -8.600694945811446 -3.5718231376277514e-07 -4.5776993218703617e-07 -7.281091718968237 -5.055435101799701 5.215870717644914 -169.3607169314824 117.53428860672696 -33.576975396594385 -167.67106039480083 1.4733796052066764e-06 1.3367893849152857e-06 28.008346203519448 0.0 0.0 -6.3611093629270335e-15 -122.9739382263835 -20.13609644402169 170.570161667402 2.6244508360364436e-07 -2.720952141406476e-06 -30.968132419546052 0.0 3.1805546814635168e-15 0.0
0.0005657411529682577 95.6088638305664 -0.0005208961665630341 -21.719530445735046 0.7985736803528313 -78.62990632302996 4.213302887599141 24.278143950053195 -3.347447111474097 1.7473481204530559 13.282005596876017 -2.11121826850218 -1.5902773407317584e-15 -2.758691436281349e-33 1.987846675914698e-16 0.6740599902683041 13.251290020606467 -1.047817298573424 3.0625914214229324 46.531934825427875 -5.470020867177793 -3.1805546814635168e-15 1.5902773407317584e-15 3.1805546814635168e-15 11.041228962879929 29.01315417726372 -7.368732849170606 4.547411027414849e-07 -2.21245582759603e-07 -6.618476713948742 0.8103650612310199 6.6569086631727075 -172.48049740214773 116.0962383622277 -42.093044554706275 -169.39085023422803 -7.521902610215515e-06 -3.401938498316659e-06 23.78573787183202 -6.3611093629270335e-15 3.1805546814635168e-15 3.1805546814635168e-15 -122.62899974425022 -18.23383110921108 173.66044330636802 -2.4906234410284427e-06 -2.5537475576232e-06 -30.230808195146643 0.0 3.1805546814635164e-15 0.0
0.0006763945566490293 95.60961151123047 -0.0005046935402788222 -21.111335667589383 0.12798648187620776 -79.18501982716771 3.9834779020677695 24.4972716621264 -3.529374154049644 1.5083672633326384 14.49111315885009 -2.319880956331202 1.5902773407317582e-15 -3.586298867165754e-32 -2.584200678689107e-15 -0.8196517941343852 10.031342521396482 -0.639948475767295 2.867804188599594 48.88951689547669 -4.902882956857005 -3.180554681463516e-15 6.620859447075238e-32 -2.3854160110976368e-15 8.786592312009478 27.521247337561487 -6.221122636915265 9.20812669799907e-07 -2.847000941376969e-07 -4.364912037000993 7.559873469804487 8.555540965140143 -171.10153427233797 113.64673319125335 -44.9068617742218 -172.58312604364775 1.9904809538984583e-07 -4.3256399067653115e-06 20.437513837711627 -6.3611093629270335e-15 0.0 0.0 -121.97411082157767 -13.954500842503377 174.61130335716905 -3.7446053786031475e-06 7.284291410573161e-07 -32.176530767572245 0.0 0.0 0.0
0.0008658862207084894 95.6102523803711 -0.0004914021701551974 -20.552298540632943 0.8379216754947164 -82.11608241809279 2.581273483719406 24.41003091491595 -3.2691138422305968 1.3052005697792197 13.869287456475611 -2.042392328895339 1.5902773407317584e-15 4.1380371544220234e-32 2.9817700138720468e-15 -2.887177779378058 8.331096513869225 -0.35071514387704705 2.618887548146612 48.839525926569955 -3.789260136690803 -1.5902773407317584e-15 -1.5902773407317584e-15 -2.2069531490250793e-32 6.358891930968518 28.83555508177218 -5.684343486050266 7.781924115159192e-07 -2.6077498270867217e-07 -2.980082990712443 10.516465818842136 11.184534949989049 -163.94216651999022 114.75625428234619 -40.8189736467997 -173.35892032114427 3.661293844164225e-06 -1.6704302411158091e-06 18.272306664175364 -1.7655625192200634e-31 6.361109362927033e-15 3.1805546814635164e-15 -121.69134859533114 -12.562038135441961 171.92474503967506 9.399576939357652e-07 7.302744788267663e-07 -31.443592788750674 -9.54166404439055e-15 -4.770832022195275e-15 -3.972515668245143e-31
0.0007442563655786216 95.61154174804688 -0.0014565528836101294 -17.928108935320203 -1.6742247638931744 -78.56585642902228 3.276771499751191 21.686244646167363 -3.349564072695371 1.820613112570114 13.032885286251553 -2.316434182481791 -2.758691436281349e-32 1.5902773407317584e-15 1.987846675914698e-15 -6.736186145712482 5.775660962892522 0.1015222749838066 9.413078639121023 42.71314144713047 -5.750936051099379 1.590277340731758e-15 -4.4139062980501586e-32 -3.180554681463516e-15 8.31836030780319 20.180941283864016 -4.936914652968748 -1.2081624919489285e-07 -1.0211466690013092e-07 -3.66672238995332 26.619250996641714 23.68648701495933 -140.99120401699844 116.48414710366322 -74.4983228077945 -172.85267907636012 4.986765811318033e-06 5.359751020783986e-07 18.072722993912702 0.0 1.590277340731758e-15 0.0 -123.74565445562634 -8.98178919741192 173.2932544787832 1.126299809706939e-06 4.375778932278452e-06 -28.306808868355343 0.0 0.0 0.0
